<svg fill="#1A1A1A" xmlns="http://www.w3.org/2000/svg"  viewBox="0 0 50 50" width="50px" height="50px"><path d="M 25 2 C 12.309295 2 2 12.309295 2 25 C 2 37.690705 12.309295 48 25 48 C 37.690705 48 48 37.690705 48 25 C 48 12.309295 37.690705 2 25 2 z M 25 4 C 36.609824 4 46 13.390176 46 25 C 46 36.609824 36.609824 46 25 46 C 13.390176 46 4 36.609824 4 25 C 4 13.390176 13.390176 4 25 4 z M 25 6 C 22.986479 6 21.045281 6.3182697 19.224609 6.8984375 A 1.0001 1.0001 0 0 0 18.617188 8.2617188 L 24.087891 20.410156 A 1.0001 1.0001 0 0 0 25.912109 20.410156 L 31.382812 8.2617188 A 1.0001 1.0001 0 0 0 30.775391 6.8984375 C 28.954719 6.3182697 27.013521 6 25 6 z M 25 8 C 26.403981 8 27.720775 8.3048459 29.025391 8.6269531 L 25 17.564453 L 20.974609 8.6269531 C 22.279225 8.3048459 23.596019 8 25 8 z M 15.683594 8.6386719 A 1.0001 1.0001 0 0 0 15.130859 8.7851562 C 12.884606 10.155054 10.94263 11.969777 9.4355469 14.121094 A 1.0001 1.0001 0 0 0 9.3457031 15.111328 L 17.738281 33.416016 A 1.0001 1.0001 0 0 0 19.53125 33.466797 L 23.466797 26.007812 L 26.53125 26.001953 L 30.46875 33.466797 A 1.0001 1.0001 0 0 0 32.261719 33.416016 L 40.654297 15.111328 A 1.0001 1.0001 0 0 0 40.564453 14.121094 C 39.057371 11.969776 37.115394 10.155054 34.869141 8.7851562 A 1.0001 1.0001 0 0 0 34.294922 8.640625 A 1.0001 1.0001 0 0 0 33.443359 9.2128906 L 26.494141 24.001953 L 23.507812 24.005859 L 16.556641 9.2128906 A 1.0001 1.0001 0 0 0 15.683594 8.6386719 z M 15.269531 11.177734 L 21.751953 24.974609 L 18.708984 30.736328 L 11.429688 14.857422 C 12.500832 13.429045 13.806169 12.208151 15.269531 11.177734 z M 34.730469 11.177734 C 36.193831 12.208151 37.499167 13.429045 38.570312 14.857422 L 31.291016 30.736328 L 28.248047 24.974609 L 34.730469 11.177734 z M 7.8789062 18.550781 A 1.0001 1.0001 0 0 0 6.8925781 19.248047 C 6.3165772 21.062555 6 22.994143 6 25 C 6 32.694679 10.591114 39.317632 17.181641 42.300781 L 17.173828 42.318359 C 19.560964 43.39843 22.213224 44 25 44 C 27.555801 44 29.995103 43.488127 32.224609 42.570312 C 32.425051 42.487797 32.627298 42.407457 32.824219 42.318359 L 32.816406 42.300781 C 39.407801 39.317986 44 32.695309 44 25 C 44 22.994143 43.683423 21.062555 43.107422 19.248047 A 1.0001 1.0001 0 0 0 42.117188 18.550781 A 1.0001 1.0001 0 0 0 41.248047 19.126953 L 31.513672 39.988281 L 25.880859 29.525391 A 1.0001 1.0001 0 0 0 24.976562 29 A 1.0001 1.0001 0 0 0 24.119141 29.525391 L 18.486328 39.986328 L 8.7519531 19.126953 A 1.0001 1.0001 0 0 0 7.8789062 18.550781 z M 8.3203125 22.933594 L 15.884766 39.144531 C 11.199807 36.120795 8 31.000236 8 25 C 8 24.278839 8.2324738 23.630136 8.3203125 22.933594 z M 41.679688 22.933594 C 41.767525 23.630136 42 24.278839 42 25 C 42 31.000236 38.800193 36.120795 34.115234 39.144531 L 41.679688 22.933594 z M 25 32.109375 L 29.925781 41.257812 C 28.365669 41.730281 26.717035 42 25 42 C 23.282907 42 21.634335 41.730021 20.074219 41.257812 L 25 32.109375 z"/></svg>