<svg fill="#1A1A1A" xmlns="http://www.w3.org/2000/svg"  viewBox="0 0 50 50" width="50px" height="50px"><path d="M 10 15 L 10 16 L 10 26.761719 C 10 27.232 9.872573 27.468644 9.6601562 27.65625 C 9.4477397 27.843856 9.079804 27.998047 8.5 27.998047 C 7.4423146 27.998047 7.0351564 27.376668 7.0351562 26.722656 L 7.0351562 26.710938 L 6.9804688 24 L 1 24 L 1 26.761719 C 1 27.889759 1.1795919 29.642719 2.2578125 31.205078 C 3.3360331 32.767437 5.3657162 34 8.5 34 C 11.649843 34 13.681685 32.683126 14.75 31.083984 C 14.778865 31.040777 14.800541 30.996544 14.828125 30.953125 C 15.047762 31.389004 15.309394 31.79028 15.626953 32.144531 C 16.767925 33.417339 18.485915 33.998807 20.515625 34 C 22.387826 34.01857 23.985413 33.332391 25.119141 32.388672 C 25.486729 32.08269 25.808132 31.750238 26.082031 31.400391 C 26.245541 31.663175 26.422177 31.916094 26.626953 32.144531 C 27.767925 33.417339 29.485915 33.998807 31.515625 34 C 33.327923 34.017976 34.874001 33.369783 36 32.472656 L 36 37 L 42 37 L 42 33.839844 C 42.49 33.949844 43.029375 34 43.609375 34 C 44.869375 34 49 33.5 49 27 C 49 20.5 44.869375 20 43.609375 20 L 42 20 L 36 20 L 36 21.636719 C 34.858541 20.505188 33.265849 20 31.5 20 C 29.559524 20 27.874492 20.577193 26.716797 21.783203 C 26.407513 22.105394 26.144513 22.468336 25.919922 22.863281 C 25.743675 22.549502 25.552955 22.251827 25.330078 21.984375 C 24.178017 20.601902 22.440476 20 20.5 20 C 18.709243 20 17.141974 20.497789 16 21.521484 L 16 15 L 10 15 z M 12 17 L 14 17 L 14 26.679688 C 14 27.469226 13.823826 28.871048 13.087891 29.972656 C 12.351955 31.074265 11.133157 32 8.5 32 C 5.8522838 32 4.6305763 31.122704 3.9042969 30.070312 C 3.1780175 29.017922 3 27.652678 3 26.761719 L 3 26 L 5.0195312 26 L 5.0351562 26.722656 C 5.0351562 28.428645 6.4896854 29.998047 8.5 29.998047 C 9.444196 29.998047 10.327792 29.736144 10.984375 29.15625 C 11.640958 28.576356 12 27.695438 12 26.761719 L 12 17 z M 20.5 22 C 22.059524 22 23.071983 22.398098 23.794922 23.265625 C 24.517861 24.133152 25 25.633333 25 28 L 19 28 C 19 29 19.237 30 20.5 30 C 21.758 30 22 29 22 29 L 25 29 C 25 29.348595 24.630579 30.189773 23.837891 30.849609 C 23.045202 31.509446 21.90622 32.014377 20.533203 32 L 20.527344 32 L 20.521484 32 C 18.849002 32 17.809793 31.581228 17.117188 30.808594 C 16.424582 30.035959 16 28.761346 16 26.8125 C 16 25.08084 16.440898 23.917162 17.158203 23.169922 C 17.875508 22.422682 18.940476 22 20.5 22 z M 31.5 22 C 33.059524 22 34.071983 22.398098 34.794922 23.265625 C 35.517861 24.133152 36 25.633333 36 28 L 30 28 C 30 29 30.237 30 31.5 30 C 32.758 30 33 29 33 29 L 36 29 C 36 29.348595 35.630579 30.189773 34.837891 30.849609 C 34.045202 31.509446 32.90622 32.014377 31.533203 32 L 31.527344 32 L 31.521484 32 C 29.849002 32 28.809793 31.581228 28.117188 30.808594 C 27.424582 30.035959 27 28.761346 27 26.8125 C 27 25.08084 27.440898 23.917162 28.158203 23.169922 C 28.875508 22.422682 29.940476 22 31.5 22 z M 38 22 L 40 22 L 40 23.199219 C 40.73 22.289219 41.8 22 43 22 L 43.609375 22 C 45.469375 22 46.610156 23.280625 46.910156 25.640625 C 46.940156 25.810625 46.960703 25.989688 46.970703 26.179688 C 46.970703 26.219687 46.980469 26.270547 46.980469 26.310547 C 46.990469 26.530547 47 26.76 47 27 C 47 27.24 46.990469 27.469453 46.980469 27.689453 C 46.970469 27.959453 46.940391 28.220938 46.900391 28.460938 C 46.880391 28.630938 46.850313 28.789453 46.820312 28.939453 L 46.820312 28.960938 C 46.410312 30.940938 45.299375 32 43.609375 32 L 43 32 C 41.8 32 40.73 31.710781 40 30.800781 L 40 35 L 38 35 L 38 22 z M 20.5 24 C 19.482 24 19 25 19 26 L 22 26 C 22 25 21.529 24 20.5 24 z M 31.5 24 C 30.482 24 30 25 30 26 L 33 26 C 33 25 32.529 24 31.5 24 z M 42 24 A 2 3 0 0 0 42 30 A 2 3 0 0 0 42 24 z"/></svg>