<svg fill="#1A1A1A" xmlns="http://www.w3.org/2000/svg"  viewBox="0 0 50 50" width="50px" height="50px"><path d="M 13 0 C 11.90625 0 11 0.90625 11 2 L 11 9.6875 C 10.941406 9.882813 10.941406 10.085938 11 10.28125 L 11 39.6875 C 10.941406 39.882813 10.941406 40.085938 11 40.28125 L 11 48 C 11 49.09375 11.90625 50 13 50 L 37 50 C 38.09375 50 39 49.09375 39 48 L 39 40.1875 C 39.027344 40.054688 39.027344 39.914063 39 39.78125 L 39 10.1875 C 39.027344 10.054688 39.027344 9.914063 39 9.78125 L 39 2 C 39 0.90625 38.09375 0 37 0 Z M 13 2 L 37 2 L 37 9 L 13 9 Z M 16.1875 3.03125 C 16.222656 3.128906 16.242188 3.199219 16.25 3.375 L 16.25 7.53125 C 16.242188 7.707031 16.222656 7.777344 16.1875 7.875 L 16.8125 7.875 C 16.777344 7.777344 16.761719 7.707031 16.75 7.53125 L 16.75 5.46875 C 16.75 5.3125 16.835938 5.347656 16.90625 5.4375 L 19 7.875 L 19.625 7.875 L 17.46875 5.34375 C 17.414063 5.28125 17.421875 5.1875 17.5 5.1875 L 17.71875 5.1875 C 18.3125 5.1875 18.8125 4.6875 18.8125 4.09375 C 18.8125 3.5 18.3125 3.03125 17.71875 3.03125 Z M 21.875 3.03125 C 20.539063 3.03125 19.46875 4.132813 19.46875 5.46875 C 19.46875 6.804688 20.539063 7.875 21.875 7.875 C 23.210938 7.875 24.3125 6.804688 24.3125 5.46875 C 24.3125 4.128906 23.210938 3.03125 21.875 3.03125 Z M 25.3125 3.03125 C 25.347656 3.128906 25.367188 3.199219 25.375 3.375 L 25.375 7.53125 C 25.367188 7.707031 25.347656 7.777344 25.3125 7.875 L 27.0625 7.875 L 27.4375 7.3125 C 27.191406 7.445313 26.667969 7.4375 26.34375 7.4375 C 26.019531 7.4375 25.875 7.265625 25.875 7.125 L 25.875 3.375 C 25.882813 3.199219 25.902344 3.128906 25.9375 3.03125 Z M 28.65625 3.03125 C 28.691406 3.128906 28.710938 3.199219 28.71875 3.375 L 28.71875 7.53125 C 28.710938 7.707031 28.691406 7.777344 28.65625 7.875 L 30.40625 7.875 L 30.75 7.3125 C 30.507813 7.445313 30.011719 7.4375 29.6875 7.4375 C 29.363281 7.4375 29.21875 7.265625 29.21875 7.125 L 29.21875 3.375 C 29.226563 3.199219 29.246094 3.128906 29.28125 3.03125 Z M 32.8125 3.15625 C 32.542969 3.15625 31.792969 3.289063 31.75 4.09375 C 31.714844 4.757813 32.179688 5.085938 32.34375 5.21875 C 32.578125 5.394531 33.167969 5.875 33.4375 6.25 C 33.707031 6.625 33.875 7.386719 32.90625 7.5 C 32.574219 7.5 32.199219 7.351563 32 7.21875 L 32.0625 7.90625 C 32.261719 7.871094 32.382813 7.894531 32.46875 7.90625 C 32.617188 7.921875 32.839844 7.976563 33.03125 7.96875 C 33.222656 7.960938 34.1875 7.796875 34.1875 6.84375 C 34.1875 6.003906 33.609375 5.597656 33.375 5.40625 C 33.210938 5.285156 32.675781 4.785156 32.46875 4.625 C 32.3125 4.503906 32.035156 3.644531 32.8125 3.625 C 33.203125 3.617188 33.554688 3.921875 33.6875 4 L 33.90625 3.4375 C 33.808594 3.421875 33.695313 3.382813 33.53125 3.3125 C 33.375 3.246094 33.082031 3.15625 32.8125 3.15625 Z M 16.75 3.5 L 17.71875 3.5 C 18.042969 3.5 18.3125 3.769531 18.3125 4.09375 C 18.3125 4.417969 18.042969 4.6875 17.71875 4.6875 L 16.75 4.6875 Z M 21.875 3.5 C 22.953125 3.5 23.84375 4.390625 23.84375 5.46875 C 23.84375 6.546875 22.953125 7.40625 21.875 7.40625 C 20.796875 7.40625 19.9375 6.546875 19.9375 5.46875 C 19.9375 4.390625 20.796875 3.5 21.875 3.5 Z M 13 11 L 37 11 L 37 39 L 13 39 Z M 16.375 12.90625 C 16.644531 13.292969 16.84375 13.421875 16.84375 14.3125 L 16.84375 32.6875 C 16.84375 33.578125 16.457031 33.988281 16.1875 34.375 L 19.46875 34.375 C 19.199219 33.988281 18.8125 33.578125 18.8125 32.6875 L 18.8125 25.9375 C 21.03125 25.902344 22.890625 25.527344 24.375 24.9375 C 26.636719 27.363281 26.898438 30.90625 26.9375 31.875 C 26.976563 32.84375 26.492188 33.679688 25.71875 34.375 L 30 34.375 C 29.34375 34.027344 29.101563 33.109375 29.0625 32.21875 C 28.636719 28.195313 26.417969 25.03125 25.875 24.21875 C 28.425781 22.691406 29.53125 20.351563 29.53125 18.1875 C 29.53125 14.585938 26.371094 12.90625 23.625 12.90625 Z M 18.8125 14.15625 L 23.0625 14.15625 C 26.003906 14.15625 26.976563 16.027344 26.9375 18 C 26.742188 23.460938 21.328125 24.28125 18.8125 24.28125 Z M 20.25 14.96875 C 20.523438 15.355469 20.71875 15.515625 20.71875 16.40625 L 20.71875 23.65625 C 21.355469 23.597656 22.242188 23.3125 22.6875 23.15625 L 22.6875 16.25 L 26.1875 16.25 C 25.992188 15.765625 25.449219 15.203125 25.0625 14.96875 Z M 29.21875 15.21875 C 29.21875 15.21875 29.921875 16.507813 30.03125 17.4375 C 30.03125 17.4375 31.640625 19.203125 30.40625 22.3125 C 29.449219 24.714844 27.25 25.5 27.25 25.5 L 28.03125 27.125 C 28.03125 27.125 28.152344 27.097656 28.34375 27.03125 C 28.832031 27.585938 30.746094 30.019531 30.84375 33.8125 C 30.84375 33.8125 30.988281 35.34375 29.59375 36.4375 L 33.84375 36.4375 C 33.84375 36.4375 33.28125 36.109375 33.0625 35.125 C 32.84375 34.140625 32.898438 32.421875 31.96875 30.34375 C 31.222656 28.671875 30.183594 26.921875 29.8125 26.3125 C 30.941406 25.621094 32.335938 24.414063 33.09375 22.375 C 34.515625 18.550781 31.789063 15.710938 29.21875 15.21875 Z M 22.6875 25.96875 C 22.417969 26.066406 21.222656 26.253906 20.71875 26.3125 L 20.71875 34.8125 C 20.71875 35.703125 20.332031 36.113281 20.0625 36.5 L 23.34375 36.5 C 23.074219 36.113281 22.6875 35.703125 22.6875 34.8125 L 22.6875 28.0625 C 23.707031 28.046875 24.699219 27.957031 25.5625 27.8125 C 25.445313 27.417969 25.027344 26.570313 24.8125 26.21875 C 24.023438 26.351563 23.269531 26.40625 22.6875 26.40625 Z M 13 41 L 37 41 L 37 48 L 13 48 Z M 15.875 42.0625 C 15.910156 42.160156 15.929688 42.261719 15.9375 42.4375 L 15.9375 46.5625 C 15.929688 46.738281 15.910156 46.839844 15.875 46.9375 L 16.5 46.9375 C 16.464844 46.839844 16.445313 46.738281 16.4375 46.5625 L 16.4375 44.53125 C 16.4375 44.375 16.523438 44.382813 16.59375 44.46875 L 18.6875 46.9375 L 19.3125 46.9375 L 17.15625 44.375 C 17.105469 44.3125 17.109375 44.21875 17.1875 44.21875 L 17.40625 44.21875 C 18 44.21875 18.5 43.75 18.5 43.15625 C 18.5 42.5625 18 42.0625 17.40625 42.0625 Z M 29.6875 42.0625 C 28.351563 42.0625 27.28125 43.226563 27.28125 44.5625 C 27.28125 45.902344 28.351563 47.09375 29.6875 47.09375 C 30.207031 47.09375 30.699219 47.09375 31.09375 46.8125 L 31.0625 46.21875 C 30.710938 46.570313 30.226563 46.625 29.6875 46.625 C 28.609375 46.625 27.75 45.640625 27.75 44.5625 C 27.75 43.484375 28.609375 42.53125 29.6875 42.53125 C 30.175781 42.53125 30.628906 42.679688 31 42.96875 L 30.9375 42.375 C 30.558594 42.136719 30.167969 42.0625 29.6875 42.0625 Z M 24.125 42.125 L 25.40625 44.4375 L 25.40625 46.625 C 25.398438 46.800781 25.378906 46.902344 25.34375 47 L 25.96875 47 C 25.933594 46.902344 25.914063 46.800781 25.90625 46.625 L 25.90625 44.4375 L 27.21875 42.125 L 26.65625 42.125 L 25.6875 43.875 L 24.6875 42.125 Z M 32.09375 42.125 C 32.128906 42.222656 32.148438 42.324219 32.15625 42.5 L 32.15625 46.625 C 32.148438 46.800781 32.128906 46.902344 32.09375 47 L 33.84375 47 L 34.1875 46.40625 C 33.945313 46.539063 33.449219 46.5625 33.125 46.5625 C 32.800781 46.5625 32.65625 46.390625 32.65625 46.25 L 32.65625 44.65625 C 32.65625 44.464844 32.757813 44.40625 32.90625 44.40625 L 33.78125 44.40625 L 33.78125 43.90625 L 32.90625 43.90625 C 32.757813 43.90625 32.65625 43.847656 32.65625 43.65625 L 32.65625 42.875 C 32.65625 42.734375 32.800781 42.59375 33.125 42.59375 C 33.449219 42.59375 33.722656 42.585938 33.96875 42.71875 L 33.84375 42.125 Z M 21.5625 42.15625 C 20.226563 42.15625 19.15625 43.226563 19.15625 44.5625 C 19.15625 45.898438 20.226563 47 21.5625 47 C 22.898438 47 24 45.898438 24 44.5625 C 24 43.226563 22.898438 42.15625 21.5625 42.15625 Z M 16.4375 42.5625 L 17.40625 42.5625 C 17.730469 42.5625 18 42.800781 18 43.125 C 18 43.449219 17.730469 43.71875 17.40625 43.71875 L 16.4375 43.71875 Z M 21.5625 42.625 C 22.640625 42.625 23.53125 43.484375 23.53125 44.5625 C 23.53125 45.640625 22.640625 46.53125 21.5625 46.53125 C 20.484375 46.53125 19.625 45.640625 19.625 44.5625 C 19.625 43.484375 20.484375 42.625 21.5625 42.625 Z"/></svg>