<svg fill="#1A1A1A" xmlns="http://www.w3.org/2000/svg"  viewBox="0 0 50 50" width="50px" height="50px"><path d="M 25 1.980469 L 8 5.171875 L 8 18.355469 C 8 19.128906 8.15625 37.453125 24.464844 47.84375 L 25.003906 48.1875 L 25.539063 47.84375 C 41.8125 37.402344 42 19.125 42 18.351563 L 42 5.171875 Z M 19 24.101563 C 19 24.101563 18.898438 24.699219 18.699219 24.898438 C 18.398438 25.199219 17.101563 24.398438 17.101563 24.398438 C 17.101563 24.398438 17.398438 23.800781 18.398438 23.5 C 18.398438 23.5 18.398438 23.398438 18.5 23.199219 C 18.5 23.101563 20.5 21.300781 20.699219 21.300781 C 21.199219 21.300781 22 22.398438 22.699219 23.199219 C 22.398438 23.800781 21.898438 24.199219 21.699219 24.300781 C 21.398438 23.898438 20.800781 23.101563 20.601563 22.898438 C 20.601563 22.898438 20 23.398438 19.699219 23.699219 L 19.398438 24 C 19.300781 24.101563 19 24.101563 19 24.101563 Z M 23 35 C 22.898438 35.101563 22.699219 35 22.601563 35 C 22.398438 34.898438 22.300781 34.5 22.300781 34.5 C 22.300781 34.5 21.898438 34.898438 21.800781 34.898438 C 21.398438 35 20.199219 33.601563 20.199219 33.601563 C 20.199219 33.601563 20.800781 33 21.898438 33.199219 C 22.101563 33.300781 22 33.101563 22.199219 33 C 22.601563 32.898438 23.101563 33.300781 24 33 C 24.199219 32.898438 24 31.699219 24.101563 30.101563 C 24.199219 30.199219 24.800781 30.699219 24.898438 30.800781 C 24.398438 32.699219 25.398438 33.699219 25.398438 33.699219 C 25.5 33.898438 25.398438 34.101563 25.300781 34.300781 C 24.898438 34.300781 23.800781 34.5 23.5 34.699219 C 23.398438 34.699219 23.101563 34.898438 23 35 Z M 30.300781 31 C 30.199219 31 30 30.898438 29.898438 31.101563 C 28.5 32.800781 27.398438 32.699219 27.5 34 C 27.5 34.300781 28 34.898438 28 35 C 27.699219 35.199219 27.199219 36.101563 27.101563 36.5 C 27.101563 36.601563 26.898438 37 26.898438 37.101563 C 26.898438 37.199219 26.699219 37.199219 26.601563 37.300781 C 26.5 37.300781 26.101563 37.199219 26.101563 37.199219 C 26.101563 37.199219 26.101563 37.699219 26 37.800781 C 25.699219 38.101563 24 37.898438 24 37.898438 C 24 37.898438 24.199219 37.101563 25.199219 36.601563 C 25.398438 36.5 25.199219 36.398438 25.300781 36.199219 C 25.5 35.898438 25.601563 35.800781 26.101563 35 C 26.199219 34.699219 26.199219 34.398438 25.5 33 C 25 32.101563 25 29.898438 27 29.699219 C 26.199219 29.601563 25.699219 30.101563 25.398438 30.398438 C 23.300781 29.101563 22.199219 27.199219 22.199219 27.199219 C 22.199219 27.199219 21.699219 27.199219 20.5 27.199219 C 20.398438 27.199219 20.898438 28.601563 21 28.800781 C 21 28.898438 21 29.199219 21 29.199219 C 21 29.199219 21.601563 29.398438 21.699219 29.601563 C 21.898438 30 20.898438 31.199219 20.898438 31.199219 C 20.898438 31.199219 20.398438 30.699219 20.300781 29.699219 C 20.300781 29.699219 20.300781 29.601563 20.101563 29.5 C 20 29.5 19.800781 29.300781 19.800781 29.101563 C 19.5 28.101563 19.300781 27.398438 19.300781 27 C 19.199219 26.601563 19.199219 26.398438 19.300781 26.101563 C 19.398438 25.800781 20.101563 25.898438 20.199219 25.800781 C 20.898438 25.699219 21.5 25.5 22.699219 24.601563 C 23.398438 24 24.101563 21.5 24.199219 20.800781 C 25.101563 20.800781 25.398438 20.398438 25.601563 19.300781 C 25.101563 20.101563 24.800781 20.300781 24.5 20.300781 C 23.699219 20.300781 23.199219 19.800781 22.699219 19.800781 C 22.398438 19.800781 22 20.101563 21.800781 20.101563 C 21.199219 20.101563 21 19.699219 21.101563 19.199219 C 21.101563 19 21.199219 18.800781 21.398438 18.601563 C 21.800781 18.199219 22 18.601563 23.5 18 C 23.800781 17.800781 23.898438 17.101563 25.101563 17.101563 C 25.101563 16.601563 25.300781 16.300781 25.5 16.101563 C 25.601563 16.300781 25.898438 17 26.101563 17.101563 C 26.601563 17.101563 26.800781 18.101563 28.101563 18.101563 C 27.898438 18.300781 27.5 18.5 27.199219 18.5 C 27.300781 18.699219 28.199219 19.101563 28.601563 19.5 C 28.199219 19.601563 27.398438 19.5 27.199219 19.5 C 27.898438 20 28.800781 20.5 29 21.101563 C 28.601563 20.800781 27.601563 20.699219 27.300781 20.699219 C 27.601563 21.101563 28.199219 21.699219 29 22 C 28 22.199219 27.699219 22.101563 27.300781 22 C 27.5 22.601563 28.300781 23 28.800781 23.199219 C 28.300781 23.398438 27.199219 23.199219 27 23 C 27.199219 23.398438 28.101563 24.101563 28.800781 24.398438 C 28.398438 24.601563 27.101563 24.300781 26.800781 24.101563 C 27 24.398438 27.699219 24.898438 28 25.101563 C 27.601563 25.101563 26.898438 25.101563 26.601563 24.800781 C 26.398438 25.300781 27 26.398438 28.101563 27.101563 C 30.5 28.5 30.300781 29.398438 30.398438 29.800781 C 30.300781 30.101563 30.601563 30.101563 30.699219 30 C 31 29.398438 31.101563 29.601563 31.101563 26 C 31.101563 24.601563 31.601563 24.199219 32 24 C 32 24 31.300781 25.199219 31.699219 26 C 31.800781 25.199219 32.800781 24.601563 32.800781 24.601563 C 32.800781 24.601563 32.101563 26.101563 32.199219 27 C 32.199219 27 32.199219 27.5 33 26.601563 C 32.601563 28.898438 32.898438 31 30.300781 31 Z M 40 13.277344 C 35.191406 11.640625 30.15625 10.800781 25 10.800781 C 18.292969 10.800781 13.089844 12.160156 10 13.246094 L 10 10.828125 L 25 8.015625 L 40 10.828125 Z M 25 5.980469 L 10 8.796875 L 10 6.828125 L 25 4.015625 L 40 6.828125 L 40 8.796875 Z"/></svg>