<svg fill="#1A1A1A" xmlns="http://www.w3.org/2000/svg"  viewBox="0 0 50 50" width="50px" height="50px"><path d="M 25 8 C 18.192828 8 12.013176 9.8278044 7.4746094 12.853516 C 2.9360431 15.879226 1.1842379e-15 20.176613 0 25 C 0 29.823387 2.9360431 34.120774 7.4746094 37.146484 C 12.013176 40.172195 18.192828 42 25 42 C 31.807172 42 37.986824 40.172195 42.525391 37.146484 C 47.063957 34.120774 50 29.823387 50 25 C 50 20.176613 47.063957 15.879226 42.525391 12.853516 C 37.986824 9.8278044 31.807172 8 25 8 z M 25 10 C 31.446828 10 37.268082 11.752289 41.416016 14.517578 C 45.563949 17.282867 48 20.987387 48 25 C 48 29.012613 45.563949 32.717133 41.416016 35.482422 C 37.268082 38.247711 31.446828 40 25 40 C 18.553172 40 12.731918 38.247711 8.5839844 35.482422 C 4.4360506 32.717133 2 29.012613 2 25 C 2 20.987387 4.4360506 17.282867 8.5839844 14.517578 C 12.731918 11.752289 18.553172 10 25 10 z M 25 12 C 13.403 12 4 17.821 4 25 C 4 32.179 13.403 38 25 38 C 36.597 38 46 32.179 46 25 C 46 17.821 36.597 12 25 12 z M 25 14 C 25.602 14 26.19525 14.019687 26.78125 14.054688 C 26.81525 14.056688 26.848813 14.058547 26.882812 14.060547 C 29.100812 14.201547 31.18975 14.597547 33.09375 15.185547 C 35.48875 16.008547 37 17.186 37 18.5 C 37 20.339 34.052938 21.919187 29.835938 22.617188 C 29.278937 17.664188 27.328 14 25 14 z M 25 14 C 22.672 14 20.721063 17.664188 20.164062 22.617188 C 15.947063 21.919187 13 20.339 13 18.5 C 13 17.186 14.51125 16.008547 16.90625 15.185547 C 18.81025 14.597547 20.900187 14.201547 23.117188 14.060547 C 23.151187 14.058547 23.18475 14.056687 23.21875 14.054688 C 23.80475 14.019687 24.398 14 25 14 z M 25 18 C 26.286 18 27.379641 20.028094 27.806641 22.871094 C 26.904641 22.952094 25.968 23 25 23 C 24.032 23 23.095359 22.952094 22.193359 22.871094 C 22.620359 20.028094 23.714 18 25 18 z M 9.2695312 19.660156 C 10.319531 22.023156 14.502578 23.939828 20.017578 24.673828 C 20.009578 24.947828 20 25.221 20 25.5 C 20 30.117 21.185578 34.087969 22.892578 35.917969 C 13.946578 35.279969 7 30.638 7 25 C 7 23.061 7.8285312 21.242156 9.2695312 19.660156 z M 40.730469 19.660156 C 42.171469 21.242156 43 23.061 43 25 C 43 30.638 36.053422 35.279969 27.107422 35.917969 C 28.814422 34.087969 30 30.117 30 25.5 C 30 25.221 29.990422 24.947828 29.982422 24.673828 C 35.497422 23.939828 39.680469 22.023156 40.730469 19.660156 z M 22.013672 24.882812 C 22.981672 24.956813 23.978 25 25 25 C 26.022 25 27.019281 24.956812 27.988281 24.882812 C 27.994281 25.086813 28 25.292 28 25.5 C 28 29.642 26.657 33 25 33 C 23.343 33 22 29.642 22 25.5 C 22 25.292 22.006672 25.086813 22.013672 24.882812 z"/></svg>