<svg fill="#1A1A1A" xmlns="http://www.w3.org/2000/svg"  viewBox="0 0 32 32" width="32px" height="32px"><path d="M 16.023438 4 C 15.308594 4 14.59375 4.007813 13.878906 4.027344 C 10.199219 4.125 6.46875 4.796875 3 6 L 4 7 C 6.9375 5.941406 10.246094 5.332031 13.921875 5.21875 C 15.316406 5.175781 16.730469 5.175781 18.125 5.21875 C 21.800781 5.332031 25.0625 5.941406 28 7 L 29 6 C 25.53125 4.796875 21.847656 4.125 18.167969 4.027344 C 17.453125 4.007813 16.738281 4 16.023438 4 Z M 12.949219 6.945313 C 10.542969 6.917969 7.269531 7.058594 5 8 C 5.417969 8.8125 7.003906 9.742188 8 10 C 8.054688 8.402344 10.882813 8 13 8 L 16 29 L 19 8 C 21.113281 8 23.941406 8.402344 24 10 C 25 9.742188 26.582031 8.8125 27 8 C 23.972656 6.742188 19.167969 6.914063 17 7 L 16 8 L 15 7 C 14.457031 6.980469 13.75 6.953125 12.949219 6.945313 Z"/></svg>